<svg width="240" height="53" viewBox="0 0 240 53" fill="none" xmlns="http://www.w3.org/2000/svg">
<path d="M0.073719 45.168C0.073719 43.152 0.721719 41.52 2.01772 40.272C3.31372 38.976 4.94572 38.328 6.91372 38.328C8.88172 38.328 10.5137 38.976 11.8097 40.272C13.1057 41.52 13.7537 43.152 13.7537 45.168C13.7537 47.184 13.1057 48.84 11.8097 50.136C10.5137 51.384 8.88172 52.008 6.91372 52.008C4.94572 52.008 3.31372 51.384 2.01772 50.136C0.721719 48.84 0.073719 47.184 0.073719 45.168ZM30.042 19.752H30.762C31.53 18.216 32.682 16.992 34.218 16.08C35.754 15.168 37.722 14.712 40.122 14.712C44.826 14.712 48.09 16.584 49.914 20.328H50.634C51.642 18.6 52.914 17.232 54.45 16.224C56.034 15.216 58.17 14.712 60.858 14.712C64.362 14.712 67.218 15.816 69.426 18.024C71.682 20.232 72.81 23.4 72.81 27.528V51H63.738V27.96C63.738 26.04 63.234 24.576 62.226 23.568C61.218 22.56 59.802 22.056 57.978 22.056C55.914 22.056 54.306 22.728 53.154 24.072C52.05 25.368 51.498 27.24 51.498 29.688V51H42.426V27.96C42.426 26.04 41.922 24.576 40.914 23.568C39.906 22.56 38.49 22.056 36.666 22.056C34.602 22.056 32.994 22.728 31.842 24.072C30.738 25.368 30.186 27.24 30.186 29.688V51H21.114V15.288H30.042V19.752ZM106.954 51V46.176H106.234C103.498 50.064 99.5618 52.008 94.4258 52.008C91.5458 52.008 88.8818 51.24 86.4338 49.704C83.9858 48.168 82.0178 45.96 80.5298 43.08C79.0418 40.2 78.2978 36.888 78.2978 33.144C78.2978 29.4 79.0418 26.088 80.5298 23.208C82.0178 20.328 83.9858 18.12 86.4338 16.584C88.8818 15.048 91.5458 14.28 94.4258 14.28C99.5618 14.28 103.45 16.152 106.09 19.896H106.81V0.599997H115.882V51H106.954ZM97.1618 22.056C94.2818 22.056 91.9298 23.04 90.1058 25.008C88.2818 26.976 87.3698 29.688 87.3698 33.144C87.3698 36.6 88.2818 39.312 90.1058 41.28C91.9298 43.248 94.2818 44.232 97.1618 44.232C100.042 44.232 102.394 43.248 104.218 41.28C106.042 39.312 106.954 36.6 106.954 33.144C106.954 29.688 106.042 26.976 104.218 25.008C102.394 23.04 100.042 22.056 97.1618 22.056ZM152.965 0.599997V51H143.461V0.599997H152.965ZM178.601 0.599997C185.369 0.599997 190.505 2.328 194.009 5.784C197.561 9.192 199.337 14.28 199.337 21.048V30.552C199.337 37.32 197.561 42.432 194.009 45.888C190.505 49.296 185.369 51 178.601 51H161.321V0.599997H178.601ZM178.745 42.36C186.137 42.36 189.833 38.52 189.833 30.84V20.76C189.833 13.08 186.137 9.24 178.745 9.24H170.825V42.36H178.745ZM238.808 0.599997V9.24H215.192V21.264H236.792V29.904H215.192V42.36H239.24V51H205.688V0.599997H238.808Z" fill="url(#paint0_linear)"/>
<defs>
<linearGradient id="paint0_linear" x1="27.3778" y1="67" x2="212.593" y2="67" gradientUnits="userSpaceOnUse">
<stop stop-color="#D9AC69"/>
<stop offset="1" stop-color="#F07C75"/>
</linearGradient>
</defs>
</svg>
